<?xml version="1.0" encoding="UTF-8" standalone="no"?>
<svg
   viewBox="0 0 36 36"
   version="1.1"
   id="svg4421"
   sodipodi:docname="forbiden.svg"
   width="36"
   height="36"
   inkscape:version="1.2 (1:1.2.1+202207142221+cd75a1ee6d)"
   xmlns:inkscape="http://www.inkscape.org/namespaces/inkscape"
   xmlns:sodipodi="http://sodipodi.sourceforge.net/DTD/sodipodi-0.dtd"
   xmlns="http://www.w3.org/2000/svg"
   xmlns:svg="http://www.w3.org/2000/svg">
  <defs
     id="defs4425" />
  <sodipodi:namedview
     id="namedview4423"
     pagecolor="#ffffff"
     bordercolor="#666666"
     borderopacity="1.0"
     inkscape:showpageshadow="2"
     inkscape:pageopacity="0.0"
     inkscape:pagecheckerboard="0"
     inkscape:deskcolor="#d1d1d1"
     showgrid="false"
     inkscape:zoom="6.5555556"
     inkscape:cx="18"
     inkscape:cy="18"
     inkscape:window-width="1600"
     inkscape:window-height="1129"
     inkscape:window-x="0"
     inkscape:window-y="34"
     inkscape:window-maximized="1"
     inkscape:current-layer="svg4421" />
  <path
     fill="#dd2e44"
     d="M 18,0 C 8.059,0 0,8.059 0,18 0,27.941 8.059,36 18,36 27.941,36 36,27.941 36,18 36,8.059 27.941,0 18,0 Z m 13,18 c 0,2.565 -0.753,4.95 -2.035,6.965 L 11.036,7.036 C 13.05,5.753 15.435,5 18,5 25.18,5 31,10.821 31,18 Z M 5,18 C 5,15.435 5.753,13.05 7.036,11.036 L 24.965,28.965 C 22.95,30.247 20.565,31 18,31 10.821,31 5,25.18 5,18 Z"
     id="path4419" />
</svg>
